<svg width="637" height="219" viewBox="0 0 637 219" fill="none" xmlns="http://www.w3.org/2000/svg">
<path d="M73.8965 218.498C58.1495 218.498 44.7137 215.319 33.5895 208.96C22.6097 202.457 14.2304 193.353 8.4515 181.648C2.8172 169.943 0 156.287 0 140.68C0 124.784 2.8894 110.911 8.6682 99.061C14.5915 87.2113 23.0431 78.0349 34.0229 71.532C45.0026 64.8846 58.2217 61.5609 73.6805 61.5609C85.3825 61.5609 95.8565 63.584 105.103 67.6303C114.349 71.532 121.789 77.3846 127.424 85.1881C133.203 92.8471 136.813 102.312 138.258 113.584H108.354C106.475 106.503 102.646 100.94 96.8675 96.8934C91.2335 92.7026 83.7205 90.6072 74.3305 90.6072C63.9283 90.6072 55.6213 92.9916 49.409 97.7604C43.3412 102.385 38.9349 108.454 36.1899 115.969C33.445 123.339 32.0725 131.142 32.0725 139.379C32.0725 147.905 33.5172 155.998 36.4066 163.657C39.296 171.316 43.8469 177.529 50.0591 182.298C56.4158 187.067 64.7229 189.451 74.9805 189.451C81.0485 189.451 86.4655 188.584 91.2335 186.85C96.0005 184.972 99.9015 182.298 102.936 178.83C106.114 175.362 108.281 171.243 109.437 166.475H140.426C139.126 177.602 135.37 187.067 129.157 194.871C122.945 202.674 115.071 208.599 105.536 212.645C96.0005 216.547 85.4545 218.498 73.8965 218.498Z" fill="black"/>
<path d="M230.707 218.498C215.104 218.498 201.813 215.246 190.833 208.743C179.853 202.096 171.474 192.92 165.695 181.214C159.916 169.365 157.027 155.564 157.027 139.813C157.027 128.107 158.616 117.486 161.794 107.948C165.117 98.2662 169.885 89.9569 176.097 83.0205C182.454 76.084 190.183 70.8095 199.285 67.1967C208.386 63.4395 218.716 61.5609 230.273 61.5609C241.976 61.5609 252.45 63.4395 261.696 67.1967C270.942 70.954 278.599 76.5898 284.667 84.1043C290.879 91.4743 294.924 100.723 296.802 111.85H265.38C264.224 107.081 262.129 103.18 259.095 100.145C256.062 96.9656 252.233 94.5812 247.61 92.9916C243.131 91.402 238.003 90.6072 232.224 90.6072C224.278 90.6072 217.56 91.98 212.07 94.7257C206.58 97.4714 202.102 101.229 198.634 105.997C195.312 110.622 192.856 115.969 191.266 122.038C189.822 127.963 189.099 134.104 189.099 140.463C189.099 149.133 190.544 157.226 193.433 164.74C196.323 172.11 200.874 178.107 207.086 182.732C213.298 187.212 221.533 189.451 231.79 189.451C238.581 189.451 244.576 188.44 249.777 186.417C255.122 184.249 259.384 181.07 262.563 176.879C265.886 172.544 267.764 167.342 268.197 161.272H226.373V134.61H300.053V143.064C300.053 158.671 297.452 172.11 292.251 183.382C287.051 194.654 279.321 203.324 269.064 209.394C258.806 215.463 246.021 218.498 230.707 218.498Z" fill="black"/>
<path d="M354.589 216.764V92.1245H307.781V63.295H432.82V92.1245H385.795V216.764H354.589Z" fill="black"/>
<path d="M516.409 218.498C500.661 218.498 487.226 215.319 476.101 208.96C465.121 202.457 456.742 193.353 450.963 181.648C445.329 169.943 442.512 156.287 442.512 140.68C442.512 124.784 445.401 110.911 451.18 99.061C457.103 87.2113 465.555 78.0349 476.535 71.532C487.514 64.8846 500.734 61.5609 516.192 61.5609C527.894 61.5609 538.368 63.584 547.614 67.6303C556.86 71.532 564.301 77.3846 569.935 85.1881C575.714 92.8471 579.326 102.312 580.77 113.584H550.865C548.987 106.503 545.158 100.94 539.38 96.8934C533.745 92.7026 526.233 90.6072 516.842 90.6072C506.44 90.6072 498.133 92.9916 491.921 97.7604C485.853 102.385 481.447 108.454 478.702 115.969C475.957 123.339 474.584 131.142 474.584 139.379C474.584 147.905 476.029 155.998 478.918 163.657C481.808 171.316 486.359 177.529 492.571 182.298C498.928 187.067 507.235 189.451 517.492 189.451C523.56 189.451 528.978 188.584 533.745 186.85C538.513 184.972 542.413 182.298 545.447 178.83C548.626 175.362 550.793 171.243 551.948 166.475H582.937C581.637 177.602 577.881 187.067 571.669 194.871C565.456 202.674 557.583 208.599 548.048 212.645C538.513 216.547 527.966 218.498 516.409 218.498Z" fill="black"/>
<path d="M561.826 30.9662H636.125V43.3527H561.826V30.9662Z" fill="black"/>
<path d="M592.784 0H605.167V111.478H592.784V0Z" fill="black"/>
</svg>
